<mxfile host="app.diagrams.net" modified="2021-02-26T03:34:09.832Z" agent="5.0 (Macintosh)" etag="nsGXnLQR4fbnyVTjHIKI" version="14.4.3" type="github">
  <diagram id="uzs5zgZgIlrW_S9j8P0k" name="Page-1">
    <mxGraphModel dx="786" dy="477" grid="1" gridSize="10" guides="1" tooltips="1" connect="1" arrows="1" fold="1" page="1" pageScale="1" pageWidth="1100" pageHeight="1700" math="0" shadow="0">
      <root>
        <mxCell id="0" />
        <mxCell id="1" parent="0" />
        <mxCell id="fg5JiDmsOrhRJlHmBZt--1" value="" style="rounded=0;whiteSpace=wrap;html=1;" vertex="1" parent="1">
          <mxGeometry x="230" y="180" width="350" height="220" as="geometry" />
        </mxCell>
      </root>
    </mxGraphModel>
  </diagram>
</mxfile>
